<svg xmlns="http://www.w3.org/2000/svg" viewBox="0 0 64 64">
  <path fill="#ec4899" d="M10 10c0-3 2-5 5-5h34c3 0 5 2 5 5v44c0 3-2 5-5 5H15c-3 0-5-2-5-5V10z"/>
  <path fill="#ffffff" d="M18 16h28c2 0 4 2 4 4v32c0 2-2 4-4 4H18c-2 0-4-2-4-4V20c0-2 2-4 4-4z"/>
  <path fill="#ec4899" d="M22 24h20c1 0 2 1 2 2s-1 2-2 2H22c-1 0-2-1-2-2s1-2 2-2z"/>
  <path fill="#ec4899" d="M22 32h20c1 0 2 1 2 2s-1 2-2 2H22c-1 0-2-1-2-2s1-2 2-2z"/>
  <path fill="#ec4899" d="M22 40h14c1 0 2 1 2 2s-1 2-2 2H22c-1 0-2-1-2-2s1-2 2-2z"/>
</svg>
